<svg xmlns="http://www.w3.org/2000/svg" width="1937" height="1089" viewBox="0 0 1937 1089">
  <metadata><?xpacket begin="﻿" id="W5M0MpCehiHzreSzNTczkc9d"?>
<x:xmpmeta xmlns:x="adobe:ns:meta/" x:xmptk="Adobe XMP Core 5.6-c138 79.159824, 2016/09/14-01:09:01        ">
   <rdf:RDF xmlns:rdf="http://www.w3.org/1999/02/22-rdf-syntax-ns#">
      <rdf:Description rdf:about=""/>
   </rdf:RDF>
</x:xmpmeta>
                                                                                                    
                                                                                                    
                                                                                                    
                                                                                                    
                                                                                                    
                                                                                                    
                                                                                                    
                                                                                                    
                                                                                                    
                                                                                                    
                                                                                                    
                                                                                                    
                                                                                                    
                                                                                                    
                                                                                                    
                                                                                                    
                                                                                                    
                                                                                                    
                                                                                                    
                                                                                                    
                           
<?xpacket end="w"?></metadata>
<defs>
    <style>
      .cls-1, .cls-4 {
        fill: #f55;
      }

      .cls-2 {
        fill: #59493f;
      }

      .cls-2, .cls-3, .cls-4 {
        fill-rule: evenodd;
      }

      .cls-3 {
        fill: #f5a931;
      }

      .cls-5 {
        fill: #37a8fd;
      }

      .cls-6 {
        font-size: 30px;
      }

      .cls-6, .cls-7 {
        fill: #fff;
        text-anchor: end;
        font-family: "Microsoft YaHei";
      }

      .cls-7 {
        font-size: 24px;
      }

      .cls-8 {
		fill: #0AB644;
      }
    </style>
  </defs>
  <rect id="圆角矩形_1" data-name="圆角矩形 1" class="cls-1" x="312" y="335.5" width="113.969" height="268" rx="20" ry="20"/>
  <path id="多边形_1" data-name="多边形 1" class="cls-2" d="M1185.5,455.469l-12,6V449.472Z"/>
  <rect id="圆角矩形_1_拷贝" data-name="圆角矩形 1 拷贝" class="cls-1" x="312" y="704" width="113.969" height="268" rx="20" ry="20"/>
  <path id="圆角矩形_1_拷贝_2" data-name="圆角矩形 1 拷贝 2" class="cls-3" d="M630.638,503h73.967a20,20,0,0,1,20,20V751a20,20,0,0,1-20,20H630.638a20,20,0,0,1-20-20V523A20,20,0,0,1,630.638,503Z"/>
  <path id="圆角矩形_1_拷贝_4" data-name="圆角矩形 1 拷贝 4" class="cls-3" d="M931.276,318.08h73.964a20,20,0,0,1,20,20v228a20,20,0,0,1-20,20H931.276a20,20,0,0,1-20-20v-228A20,20,0,0,1,931.276,318.08Z"/>
  <rect id="圆角矩形_1_拷贝_8" data-name="圆角矩形 1 拷贝 8" class="cls-5" x="1531.03" y="101" width="113.97" height="871" rx="20" ry="20"/>
  <path id="圆角矩形_1_拷贝_5" data-name="圆角矩形 1 拷贝 5" class="cls-8" d="M1206.39,118.42h94.08a20,20,0,0,1,20,20v161a20,20,0,0,1-20,20h-94.08a20,20,0,0,1-20-20v-161A20,20,0,0,1,1206.39,118.42Z"/>
  <path id="圆角矩形_1_拷贝_6" data-name="圆角矩形 1 拷贝 6" class="cls-8" d="M1206.39,351.58h94.08a20,20,0,0,1,20,20v161a20,20,0,0,1-20,20h-94.08a20,20,0,0,1-20-20v-161A20,20,0,0,1,1206.39,351.58Z"/>
  <path id="圆角矩形_1_拷贝_7" data-name="圆角矩形 1 拷贝 7" class="cls-8" d="M1206.39,586.08h94.08a20,20,0,0,1,20,20v161a20,20,0,0,1-20,20h-94.08a20,20,0,0,1-20-20v-161A20,20,0,0,1,1206.39,586.08Z"/>
  <path id="圆角矩形_1_拷贝_3" data-name="圆角矩形 1 拷贝 3" class="cls-3" d="M630.638,134.5h73.967a20,20,0,0,1,20,20v228a20,20,0,0,1-20,20H630.638a20,20,0,0,1-20-20v-228A20,20,0,0,1,630.638,134.5Z"/>
  <path id="圆角矩形_1_拷贝_9" data-name="圆角矩形 1 拷贝 9" class="cls-1" d="M630.638,135.5h73.967a20,20,0,0,1,20,20v228a20,20,0,0,1-20,20H630.638a20,20,0,0,1-20-20v-228A20,20,0,0,1,630.638,135.5Z"/>
  <path id="形状_7" data-name="形状 7" class="cls-2" d="M1530.5,170.344l-12,6v-12ZM1320,171v-3h200v3H1320Z"/>
  <path id="形状_7_拷贝" data-name="形状 7 拷贝" class="cls-2" d="M1530.5,221.344l-12,6v-12ZM1320,222v-3h200v3H1320Z"/>
  <path id="形状_7_拷贝_2" data-name="形状 7 拷贝 2" class="cls-2" d="M1530.5,270.344l-12,6v-12ZM1320,271v-3h200v3H1320Z"/>
  <path id="形状_7_拷贝_3" data-name="形状 7 拷贝 3" class="cls-2" d="M1530.5,403.344l-12,6v-12ZM1320,404v-3h200v3H1320Z"/>
  <path id="形状_7_拷贝_4" data-name="形状 7 拷贝 4" class="cls-2" d="M1530.5,454.344l-12,6v-12ZM1320,455v-3h200v3H1320Z"/>
  <path id="形状_7_拷贝_5" data-name="形状 7 拷贝 5" class="cls-2" d="M1530.5,499.344l-12,6v-12ZM1320,500v-3h200v3H1320Z"/>
  <path id="形状_7_拷贝_6" data-name="形状 7 拷贝 6" class="cls-2" d="M1530.5,639.344l-12,6v-12ZM1320,640v-3h200v3H1320Z"/>
  <path id="形状_7_拷贝_7" data-name="形状 7 拷贝 7" class="cls-2" d="M1530.5,690.344l-12,6v-12ZM1320,691v-3h200v3H1320Z"/>
  <path id="形状_7_拷贝_8" data-name="形状 7 拷贝 8" class="cls-2" d="M1530.5,740.344l-12,6v-12ZM1320,741v-3h200v3H1320Z"/>
  <text id="设备" class="cls-6" transform="translate(1627.892 547.466) scale(1.341 1.34)"><tspan x="0">设备</tspan></text>
  <text id="时间_码分_配器" data-name="时间 码分 配器" class="cls-7" transform="translate(1284.93 175.527) scale(1.341 1.34)"><tspan x="0">时间</tspan><tspan x="0" dy="42">码分</tspan><tspan x="0" dy="42">配器</tspan></text>
  <text id="时间_码分_配器_拷贝" data-name="时间 码分 配器 拷贝" class="cls-7" transform="translate(1284.93 409.687) scale(1.341 1.34)"><tspan x="0">时间</tspan><tspan x="0" dy="42">码分</tspan><tspan x="0" dy="42">配器</tspan></text>
  <text id="时间_码分_配器_拷贝_2" data-name="时间 码分 配器 拷贝 2" class="cls-7" transform="translate(1284.93 642.847) scale(1.341 1.34)"><tspan x="0">时间</tspan><tspan x="0" dy="42">码分</tspan><tspan x="0" dy="42">配器</tspan></text>
  <text id="时间_码倒_换器_" data-name="时间 码倒 换器 " class="cls-7" transform="translate(1001.086 381.546) scale(1.341 1.34)"><tspan x="0">时间</tspan><tspan x="0" dy="42">码倒</tspan><tspan x="0" dy="42">换器</tspan></text>
  <text id="A" class="cls-7" transform="translate(979.975 549.9) scale(1.341 1.34)"><tspan x="0">A</tspan></text>
  <text id="时间_码发_生器_" data-name="时间 码发 生器 " class="cls-7" transform="translate(699.788 197.967) scale(1.341 1.34)"><tspan x="0">时间</tspan><tspan x="0" dy="42">码发</tspan><tspan x="0" dy="42">生器</tspan></text>
  <text id="A-2" data-name="A" class="cls-7" transform="translate(677.018 367.659) scale(1.341 1.34)"><tspan x="0">A</tspan></text>
  <text id="时间_码发_生器_2" data-name="时间 码发 生器 " class="cls-7" transform="translate(401.151 397.966) scale(1.341 1.34)"><tspan x="0">时间</tspan><tspan x="0" dy="42">码发</tspan><tspan x="0" dy="42">生器</tspan></text>
  <text id="B" class="cls-7" transform="translate(379.381 567.32) scale(1.341 1.34)"><tspan x="0">B</tspan></text>
  <text id="时间_码发_生器_3" data-name="时间 码发 生器 " class="cls-7" transform="translate(401.151 767.467) scale(1.341 1.34)"><tspan x="0">时间</tspan><tspan x="0" dy="42">码发</tspan><tspan x="0" dy="42">生器</tspan></text>
  <text id="时间_码发_生器_4" data-name="时间 码发 生器 " class="cls-7" transform="translate(699.788 566.467) scale(1.341 1.34)"><tspan x="0">时间</tspan><tspan x="0" dy="42">码倒</tspan><tspan x="0" dy="42">换器</tspan></text>
  <text id="B-2" data-name="B" class="cls-7" transform="translate(676.336 734.82) scale(1.341 1.34)"><tspan x="0">B</tspan></text>
  <path id="形状_13" data-name="形状 13" class="cls-2" d="M798,504h3V641h-3V504Zm2,134v3H725v-3h75Z"/>
  <path id="形状_13_拷贝_3" data-name="形状 13 拷贝 3" class="cls-2" d="M499,703h3V840h-3V703Zm2,134v3H426v-3h75Z"/>
  <path id="形状_13_拷贝" data-name="形状 13 拷贝" class="cls-2" d="M798,403h3V266h-3V403Zm2-134v-3H725v3h75Z"/>
  <path id="形状_13_拷贝_2" data-name="形状 13 拷贝 2" class="cls-2" d="M499,601h3V464h-3V601Zm2-134v-3H426v3h75Z"/>
  <text id="C" class="cls-7" transform="translate(375.699 937.16) scale(1.341 1.34)"><tspan x="0">C</tspan></text>
  <path id="形状_8" data-name="形状 8" class="cls-2" d="M1025,456v-3h150v3H1025Z"/>
  <path id="形状_9" data-name="形状 9" class="cls-2" d="M1186.5,219.344l-12,6v-12Zm-86.48,1.156-0.04-3,75-1,0.04,3Z"/>
  <path id="形状_9_拷贝" data-name="形状 9 拷贝" class="cls-2" d="M1186.5,692.344l-12,6v-12Zm-86.48,1.156-0.04-3,75-1,0.04,3Z"/>
  <path id="形状_10" data-name="形状 10" class="cls-2" d="M1098,218h3V693h-3V218Z"/>
  <path id="形状_11" data-name="形状 11" class="cls-2" d="M911,400.688l-12,6v-12ZM800,402v-3H900v3H800Z"/>
  <path id="形状_11_拷贝_2" data-name="形状 11 拷贝 2" class="cls-2" d="M611,599.688l-12,6v-12ZM500,601v-3H600v3H500Z"/>
  <path id="形状_11_拷贝_3" data-name="形状 11 拷贝 3" class="cls-2" d="M611,704.688l-12,6v-12ZM500,706v-3H600v3H500Z"/>
  <path id="形状_11_拷贝" data-name="形状 11 拷贝" class="cls-2" d="M911,505.688l-12,6v-12ZM800,507v-3H900v3H800Z"/>
</svg>
