<svg xmlns="http://www.w3.org/2000/svg" xmlns:xlink="http://www.w3.org/1999/xlink" preserveAspectRatio="xMidYMid" width="1937" height="1089" viewBox="0 0 1937 1089">
  <defs>
    <style>
      .cls-1 {
        fill: #0ab644;
      }

      .cls-2 {
        fill: #37a8fd;
      }

      .cls-11, .cls-2, .cls-5, .cls-6 {
        fill-rule: evenodd;
      }

      .cls-3, .cls-4 {
        font-size: 22px;
      }

      .cls-10, .cls-4, .cls-8 {
        fill: #fff;
        text-anchor: middle;
        font-family: "Microsoft YaHei";
      }

      .cls-5 {
        fill: #3d3d3d;
      }

      .cls-6 {
        fill: #f5a931;
      }

      .cls-7, .cls-8 {
        font-size: 24px;
      }

      .cls-10, .cls-9 {
        font-size: 18px;
      }

      .cls-11 {
        fill: #f55;
      }
    </style>
  </defs>
  <rect x="304" y="832.25" width="1329" height="86.75" rx="25" ry="25" class="cls-1"/>
  <path d="M329.000,476.668 L1608.000,476.668 C1621.807,476.668 1633.000,487.861 1633.000,501.668 L1633.000,538.390 C1633.000,552.197 1621.807,563.390 1608.000,563.390 L329.000,563.390 C315.193,563.390 304.000,552.197 304.000,538.390 L304.000,501.668 C304.000,487.861 315.193,476.668 329.000,476.668 Z" class="cls-2"/>
  <text transform="translate(968 889) scale(1.75 1.74)" class="cls-3"><tspan x="0" class="cls-4">设备层</tspan></text>
  <text transform="translate(968 533) scale(1.75 1.74)" class="cls-3"><tspan x="0" class="cls-4">核心交换机</tspan></text>
  <g>
    <path d="M514.269,561.475 L521.287,561.475 L521.287,637.862 L514.269,637.862 L514.269,561.475 Z" class="cls-5"/>
    <path d="M1409.758,563.238 L1416.746,563.238 L1416.746,832.218 L1409.758,832.218 L1409.758,563.238 Z" class="cls-5"/>
    <path d="M961.603,561.475 L968.622,561.475 L968.622,637.862 L961.603,637.862 L961.603,561.475 Z" class="cls-5"/>
    <path d="M555.041,302.891 L562.028,302.891 L562.028,476.456 L555.041,476.456 L555.041,302.891 Z" class="cls-5"/>
    <path d="M828.169,294.228 L835.187,294.228 L835.187,476.456 L828.169,476.456 L828.169,294.228 Z" class="cls-5"/>
    <path d="M1099.535,302.891 L1106.522,302.891 L1106.522,476.456 L1099.535,476.456 L1099.535,302.891 Z" class="cls-5"/>
  </g>
  <path d="M1374.728,302.891 L1381.716,302.891 L1381.716,476.456 L1374.728,476.456 L1374.728,302.891 Z" class="cls-5"/>
  <path d="M514.968,755.861 L521.956,755.861 L521.956,832.218 L514.968,832.218 L514.968,755.861 Z" class="cls-5"/>
  <path d="M962.272,755.861 L969.290,755.861 L969.290,832.218 L962.272,832.218 L962.272,755.861 Z" class="cls-5"/>
  <path d="M436.589,637.862 L595.170,637.862 C600.693,637.862 605.170,642.339 605.170,647.862 L605.170,745.861 C605.170,751.384 600.693,755.861 595.170,755.861 L436.589,755.861 C431.066,755.861 426.589,751.384 426.589,745.861 L426.589,647.862 C426.589,642.339 431.066,637.862 436.589,637.862 Z" class="cls-6"/>
  <path d="M883.376,637.862 L1041.957,637.862 C1047.480,637.862 1051.957,642.339 1051.957,647.862 L1051.957,745.861 C1051.957,751.384 1047.480,755.861 1041.957,755.861 L883.376,755.861 C877.853,755.861 873.376,751.384 873.376,745.861 L873.376,647.862 C873.376,642.339 877.853,637.862 883.376,637.862 Z" class="cls-6"/>
  <text transform="translate(517 709) scale(1.75 1.74)" class="cls-7"><tspan x="0" class="cls-8">GPI/O</tspan></text>
  <text transform="translate(962 709) scale(1.75 1.74)" class="cls-9"><tspan x="0" class="cls-10">SmartHub</tspan></text>
  <path d="M472.955,171.000 L652.530,171.000 C658.053,171.000 662.530,175.477 662.530,181.000 L662.530,292.891 C662.530,298.414 658.053,302.891 652.530,302.891 L472.955,302.891 C467.432,302.891 462.955,298.414 462.955,292.891 L462.955,181.000 C462.955,175.477 467.432,171.000 472.955,171.000 Z" class="cls-11"/>
  <path d="M744.321,171.000 L923.896,171.000 C929.419,171.000 933.896,175.477 933.896,181.000 L933.896,292.891 C933.896,298.414 929.419,302.891 923.896,302.891 L744.321,302.891 C738.798,302.891 734.321,298.414 734.321,292.891 L734.321,181.000 C734.321,175.477 738.798,171.000 744.321,171.000 Z" class="cls-11"/>
  <path d="M1015.687,171.000 L1195.262,171.000 C1200.784,171.000 1205.262,175.477 1205.262,181.000 L1205.262,292.891 C1205.262,298.414 1200.784,302.891 1195.262,302.891 L1015.687,302.891 C1010.164,302.891 1005.687,298.414 1005.687,292.891 L1005.687,181.000 C1005.687,175.477 1010.164,171.000 1015.687,171.000 Z" class="cls-11"/>
  <path d="M1287.053,171.000 L1466.627,171.000 C1472.150,171.000 1476.627,175.477 1476.627,181.000 L1476.627,292.891 C1476.627,298.414 1472.150,302.891 1466.627,302.891 L1287.053,302.891 C1281.530,302.891 1277.053,298.414 1277.053,292.891 L1277.053,181.000 C1277.053,175.477 1281.530,171.000 1287.053,171.000 Z" class="cls-11"/>
  <text transform="translate(566 221) scale(1.75 1.74)" class="cls-9"><tspan x="0" class="cls-10">VSM</tspan><tspan dy="1.2em" x="0" class="cls-10">服务器1</tspan></text>
  <text transform="translate(839 220) scale(1.75 1.74)" class="cls-9"><tspan x="0" class="cls-10">VSM</tspan><tspan dy="1.2em" x="0" class="cls-10">服务器2</tspan></text>
  <text transform="translate(1107 217) scale(1.75 1.74)" class="cls-9"><tspan x="0" class="cls-10">VSM</tspan><tspan dy="1.2em" x="0" class="cls-10">监控服务器</tspan></text>
  <text transform="translate(1376 218) scale(1.75 1.74)" class="cls-9"><tspan x="0" class="cls-10">VSM</tspan><tspan dy="1.2em" x="0" class="cls-10">控制面板</tspan></text>
</svg>
