<?xml version="1.0" encoding="utf-8"?>
<!-- Generator: Adobe Illustrator 19.2.1, SVG Export Plug-In . SVG Version: 6.00 Build 0)  -->
<svg version="1.1" id="图层_1" xmlns="http://www.w3.org/2000/svg" xmlns:xlink="http://www.w3.org/1999/xlink" x="0px" y="0px"
	 viewBox="0 0 1920 1080" style="enable-background:new 0 0 1920 1080;" xml:space="preserve">
<style type="text/css">
	.st0{fill:none;}
	.st1{fill:none;stroke:#37A8FD;stroke-width:6;}
	.st2{fill:#37A8FD;}
	.st3{opacity:0.5;fill:none;stroke:#FF5555;stroke-width:6;enable-background:new    ;}
	.st4{fill:#FFAAAA;}
	.st5{fill:#F5A931;}
	.st6{fill:none;stroke:#F5A931;stroke-width:6;}
	.st7{fill:#FFFFFF;}
	.st8{font-family:'PingFangSC-Semibold-GBpc-EUC-H';}
	.st9{font-size:27.861px;}
	.st10{opacity:0.3;fill:#FF5555;enable-background:new    ;}
	.st11{fill:#FF5555;}
	.st12{font-family:'PingFangSC-Medium-GBpc-EUC-H';}
	.st13{font-size:16.2221px;}
	.st14{fill:#433F3C;}
	.st15{font-size:24.3331px;}
</style>
<path class="st0" d="M0,0"/>
<g>
	<g>
		<path class="st1" d="M514.7,218.5V121h1133.8v93.6"/>
		<path class="st1" d="M1151.2,212.7v-90"/>
		<path class="st2" d="M515.1,234.3l12.9-23.8h-25.7L515.1,234.3"/>
		<path class="st2" d="M1151.5,234.3l12.9-23.8h-25.7L1151.5,234.3"/>
		<path class="st2" d="M1649.2,234.3l12.9-23.8h-25.7L1649.2,234.3"/>
	</g>
	<g>
		<path class="st2" d="M326.4,586.6l12.9-23.8h-25.7L326.4,586.6"/>
		<path class="st2" d="M579,586.6l12.9-23.8h-25.7L579,586.6"/>
		<path class="st2" d="M863.2,586.6l12.9-23.8h-25.7L863.2,586.6"/>
		<path class="st2" d="M524.6,313.3l-12.9,23.8h25.7L524.6,313.3"/>
		<path class="st1" d="M326.1,563.7V446.6h537.4v116.2"/>
		<path class="st1" d="M578.6,564V449.4"/>
		<path class="st1" d="M524.3,447.6V337.1"/>
	</g>
	<g>
		<path class="st2" d="M964.7,586.6l12.9-23.8h-25.7L964.7,586.6"/>
		<path class="st2" d="M1217.3,586.6l12.9-23.8h-25.7L1217.3,586.6"/>
		<path class="st2" d="M1511,586.6l12.9-23.8h-25.7L1511,586.6"/>
		<path class="st2" d="M1162.9,313.3l-12.9,23.8h25.7L1162.9,313.3"/>
		<path class="st1" d="M964.4,563.7V446.6h546.9v116.2"/>
		<path class="st1" d="M1216.9,563.1V450.4"/>
		<path class="st1" d="M1162.6,447.6V337.1"/>
	</g>
	<g>
		<path class="st3" d="M244.2,577.1V479h1228.1V275.2h-189.6"/>
		<path class="st3" d="M383.3,274.3H307v132.3h562.1h39.1v156.5"/>
		<path class="st4" d="M244.5,585.6l12.9-23.8h-25.7L244.5,585.6"/>
		<path class="st4" d="M907.9,585.6l12.9-23.8H895L907.9,585.6"/>
	</g>
	<g>
		<path class="st5" d="M682.3,258.2l-22.8,14.6l22.5,14.4L682.3,258.2"/>
		<path class="st5" d="M986.1,288l22.2-15l-22.7-11.6L986.1,288"/>
		<path class="st6" d="M678.6,273.3h309.6"/>
	</g>
</g>
<g>
	<path class="st2" d="M1050.4,232.8h196c23.5,0,42.5,19,42.5,42.5s-19,42.5-42.5,42.5h-196c-23.5,0-42.5-19-42.5-42.5
		C1008,251.8,1027,232.8,1050.4,232.8z"/>
	<text transform="matrix(0.9831 0 0 1 1083.7734 285.0518)" class="st7 st8 st9">通话矩阵</text>
</g>
<g>
	<path class="st2" d="M421.2,231.8H618c23.5,0,42.5,19,42.5,42.5s-19,42.5-42.5,42.5H421.2c-23.4,0-42.5-19-42.5-42.5
		S397.7,231.8,421.2,231.8z"/>
	<text transform="matrix(1 0 0 1 453.8193 284.0518)" class="st7 st8 st9">通话矩阵</text>
</g>
<g>
	<path class="st10" d="M187,585.9h250.2v248.2H187V585.9z"/>
	<g>
		<g>
			<path class="st11" d="M239.2,614.2h146.5c12,0,21.8,9.8,21.8,21.8s-9.8,21.8-21.8,21.8H239.2c-12,0-21.8-9.8-21.8-21.8
				C217.5,624,227.2,614.2,239.2,614.2z"/>
			<text transform="matrix(1 0 0 1 279.5562 641.0303)" class="st7 st12 st13">通话面板</text>
		</g>
		<g>
			<path class="st11" d="M239.2,713h146.5c12,0,21.8,9.7,21.8,21.8c0,12-9.7,21.8-21.8,21.8H239.2c-12,0-21.8-9.7-21.8-21.8
				C217.5,722.7,227.2,713,239.2,713z"/>
			<text transform="matrix(1 0 0 1 279.5562 740.0303)" class="st7 st12 st13">通话面板</text>
		</g>
		<g>
			<path class="st11" d="M239.2,663.6h146.5c12,0,21.8,9.8,21.8,21.8s-9.8,21.8-21.8,21.8H239.2c-12,0-21.8-9.8-21.8-21.8
				C217.5,673.3,227.2,663.6,239.2,663.6z"/>
			<text transform="matrix(1 0 0 1 279.5562 691.0303)" class="st7 st12 st13">通话面板</text>
		</g>
		<g>
			<path class="st11" d="M239.2,762.3h146.5c12,0,21.8,9.7,21.8,21.8c0,12-9.7,21.8-21.8,21.8H239.2c-12,0-21.8-9.7-21.8-21.8
				C217.5,772.1,227.2,762.3,239.2,762.3z"/>
			<text transform="matrix(1 0 0 1 279.5562 790.0303)" class="st7 st12 st13">通话面板</text>
		</g>
	</g>
	<text transform="matrix(1 0 0 1 247.3013 874)" class="st14 st8 st15">2500导控室</text>
</g>
<g>
	<path class="st10" d="M496.4,585.9h250.2v248.2H496.4V585.9z"/>
	<g>
		<g>
			<path class="st11" d="M548.6,614.2h146.5c12,0,21.8,9.8,21.8,21.8s-9.8,21.8-21.8,21.8H548.6c-12,0-21.8-9.8-21.8-21.8
				C526.9,624,536.6,614.2,548.6,614.2z"/>
			<text transform="matrix(1 0 0 1 581.4453 641.0303)" class="st7 st12 st13">摄像机通话</text>
		</g>
		<g>
			<path class="st11" d="M548.6,713h146.5c12,0,21.8,9.7,21.8,21.8c0,12-9.7,21.8-21.8,21.8H548.6c-12,0-21.8-9.7-21.8-21.8
				C526.9,722.7,536.6,713,548.6,713z"/>
			<text transform="matrix(1 0 0 1 581.4453 740.0303)" class="st7 st12 st13">摄像机通话</text>
		</g>
		<g>
			<path class="st11" d="M548.6,663.6h146.5c12,0,21.8,9.8,21.8,21.8s-9.8,21.8-21.8,21.8H548.6c-12,0-21.8-9.8-21.8-21.8
				C526.9,673.3,536.6,663.6,548.6,663.6z"/>
			<text transform="matrix(1 0 0 1 581.4453 691.0303)" class="st7 st12 st13">摄像机通话</text>
		</g>
		<g>
			<path class="st11" d="M548.6,762.3h146.5c12,0,21.8,9.7,21.8,21.8c0,12-9.7,21.8-21.8,21.8H548.6c-12,0-21.8-9.7-21.8-21.8
				C526.9,772.1,536.6,762.3,548.6,762.3z"/>
			<text transform="matrix(1 0 0 1 581.4453 790.0303)" class="st7 st12 st13">摄像机通话</text>
		</g>
	</g>
	<text transform="matrix(1 0 0 1 535.2529 874.0449)" class="st14 st8 st15">摄像机ENG通道</text>
</g>
<g>
	<path class="st10" d="M805.8,585.9H1056v248.2H805.8V585.9z"/>
	<g>
		<g>
			<path class="st11" d="M858,614.2h146.5c12,0,21.8,9.8,21.8,21.8s-9.8,21.8-21.8,21.8H858c-12,0-21.8-9.8-21.8-21.8
				S846,614.2,858,614.2z"/>
			<text transform="matrix(1 0 0 1 898.5562 641.0303)" class="st7 st12 st13">通话面板</text>
		</g>
		<g>
			<path class="st11" d="M858,713h146.5c12,0,21.8,9.7,21.8,21.8c0,12-9.7,21.8-21.8,21.8H858c-12,0-21.8-9.7-21.8-21.8
				S846,713,858,713z"/>
			<text transform="matrix(1 0 0 1 898.5562 740.0303)" class="st7 st12 st13">通话面板</text>
		</g>
		<g>
			<path class="st11" d="M858,663.6h146.5c12,0,21.8,9.8,21.8,21.8s-9.8,21.8-21.8,21.8H858c-12,0-21.8-9.8-21.8-21.8
				C836.2,673.3,846,663.6,858,663.6z"/>
			<text transform="matrix(1 0 0 1 898.5562 691.0303)" class="st7 st12 st13">通话面板</text>
		</g>
		<g>
			<path class="st11" d="M858,762.3h146.5c12,0,21.8,9.7,21.8,21.8c0,12-9.7,21.8-21.8,21.8H858c-12,0-21.8-9.7-21.8-21.8
				C836.2,772.1,845.9,762.3,858,762.3z"/>
			<text transform="matrix(1 0 0 1 898.5562 790.0303)" class="st7 st12 st13">通话面板</text>
		</g>
	</g>
	<text transform="matrix(1 0 0 1 870.1675 874.0449)" class="st14 st8 st15">分控技术区</text>
</g>
<g>
	<path class="st10" d="M1115.9,585.9h250.2v248.2h-250.2V585.9z"/>
	<g>
		<g>
			<path class="st11" d="M1168.1,614.2h146.5c12,0,21.8,9.8,21.8,21.8s-9.8,21.8-21.8,21.8h-146.5c-12,0-21.8-9.8-21.8-21.8
				C1146.4,624,1156.1,614.2,1168.1,614.2z"/>
			<text transform="matrix(1 0 0 1 1208.5566 641.0303)" class="st7 st12 st13">通话面板</text>
		</g>
		<g>
			<path class="st11" d="M1168.1,713h146.5c12,0,21.8,9.7,21.8,21.8c0,12-9.7,21.8-21.8,21.8h-146.5c-12,0-21.8-9.7-21.8-21.8
				C1146.4,722.7,1156.1,713,1168.1,713z"/>
			<text transform="matrix(1 0 0 1 1208.5566 740.0303)" class="st7 st12 st13">通话面板</text>
		</g>
		<g>
			<path class="st11" d="M1168.1,663.6h146.5c12,0,21.8,9.8,21.8,21.8s-9.8,21.8-21.8,21.8h-146.5c-12,0-21.8-9.8-21.8-21.8
				C1146.4,673.3,1156.1,663.6,1168.1,663.6z"/>
			<text transform="matrix(1 0 0 1 1208.5566 691.0303)" class="st7 st12 st13">通话面板</text>
		</g>
		<g>
			<path class="st11" d="M1168.1,762.3h146.5c12,0,21.8,9.7,21.8,21.8c0,12-9.7,21.8-21.8,21.8h-146.5c-12,0-21.8-9.7-21.8-21.8
				C1146.4,772.1,1156.1,762.3,1168.1,762.3z"/>
			<text transform="matrix(1 0 0 1 1208.5566 790.0303)" class="st7 st12 st13">通话面板</text>
		</g>
	</g>
	<text transform="matrix(1 0 0 1 1177.6133 874)" class="st14 st8 st15">1200导控室</text>
</g>
<g>
	<path class="st10" d="M1425,585.9h250.2v248.2H1425V585.9z"/>
	<g>
		<g>
			<path class="st11" d="M1477.2,614.2h146.5c12,0,21.8,9.8,21.8,21.8s-9.8,21.8-21.8,21.8h-146.5c-12,0-21.8-9.8-21.8-21.8
				C1455.4,624,1465.2,614.2,1477.2,614.2z"/>
			<text transform="matrix(1 0 0 1 1509.4453 641.0303)" class="st7 st12 st13">摄像机通话</text>
		</g>
		<g>
			<path class="st11" d="M1477.2,713h146.5c12,0,21.8,9.7,21.8,21.8c0,12-9.7,21.8-21.8,21.8h-146.5c-12,0-21.8-9.7-21.8-21.8
				C1455.4,722.7,1465.2,713,1477.2,713z"/>
			<text transform="matrix(1 0 0 1 1509.4453 740.0303)" class="st7 st12 st13">摄像机通话</text>
		</g>
		<g>
			<path class="st11" d="M1477.2,663.6h146.5c12,0,21.8,9.8,21.8,21.8s-9.8,21.8-21.8,21.8h-146.5c-12,0-21.8-9.8-21.8-21.8
				C1455.4,673.3,1465.2,663.6,1477.2,663.6z"/>
			<text transform="matrix(1 0 0 1 1509.4453 691.0303)" class="st7 st12 st13">摄像机通话</text>
		</g>
		<g>
			<path class="st11" d="M1477.2,762.3h146.5c12,0,21.8,9.7,21.8,21.8c0,12-9.7,21.8-21.8,21.8h-146.5c-12,0-21.8-9.7-21.8-21.8
				C1455.4,772.1,1465.2,762.3,1477.2,762.3z"/>
			<text transform="matrix(1 0 0 1 1509.4453 790.0303)" class="st7 st12 st13">摄像机通话</text>
		</g>
	</g>
	<text transform="matrix(1 0 0 1 1455.5293 874.0449)" class="st14 st8 st15">摄像机PROD通道</text>
</g>
<g>
	<path class="st10" d="M1529.4,233.4H1780v198h-250.6V233.4z"/>
	<g>
		<g>
			<path class="st11" d="M1581.1,261h146.5c12,0,21.8,9.8,21.8,21.8s-9.8,21.8-21.8,21.8h-146.5c-12,0-21.8-9.8-21.8-21.8
				C1559.3,270.7,1569,261,1581.1,261z"/>
			<text transform="matrix(1 0 0 1 1605.334 288.0303)" class="st7 st12 st13">无线通话基站</text>
		</g>
		<g>
			<path class="st11" d="M1581.1,359.7h146.5c12,0,21.8,9.7,21.8,21.8c0,12-9.7,21.8-21.8,21.8h-146.5c-12,0-21.8-9.7-21.8-21.8
				C1559.3,369.5,1569,359.7,1581.1,359.7z"/>
			<text transform="matrix(1 0 0 1 1605.334 387.0303)" class="st7 st12 st13">无线通话基站</text>
		</g>
		<g>
			<path class="st11" d="M1581.1,310.4h146.5c12,0,21.8,9.8,21.8,21.8s-9.8,21.8-21.8,21.8h-146.5c-12,0-21.8-9.8-21.8-21.8
				C1559.3,320.1,1569,310.4,1581.1,310.4z"/>
			<text transform="matrix(1 0 0 1 1605.334 338.0303)" class="st7 st12 st13">无线通话基站</text>
		</g>
	</g>
	<text transform="matrix(1 0 0 1 1606.334 470.0449)" class="st14 st8 st15">无线通话</text>
</g>
</svg>
